# xmcd
# 
# Track frame offsets:
#     150
#     18325
#     35770
#     60352
#     80670
#     97035
#     120320
#     135115
#     154690
#     170155
#     189540
#     207934
# 
# Disc length: 3017
# 
# Revision: 3
# Processed by: cddbd v1.5.2PL0 Copyright (c) Steve Scherf et al.
# Submitted via: fre:ac v1.0.27
# 
DISCID=980bc70c
DTITLE=Rob Stone - Back Around Here
DYEAR=2010
DGENRE=Blues
TTITLE0=You're No Good For Me
TTITLE1=Back Around Here
TTITLE2=Love You For Myself
TTITLE3=Give Me Time
TTITLE4=I Need To Plant A Money Tree
TTITLE5=Chicago All Night
TTITLE6=Lot To Love About You
TTITLE7=Sloppy Drunk Blues
TTITLE8=It's Hard But It's Fair
TTITLE9=Dragon Killers
TTITLE10=Can't Turn Back The Clock
TTITLE11=No Strings Attached
EXTD=
EXTT0=
EXTT1=
EXTT2=
EXTT3=
EXTT4=
EXTT5=
EXTT6=
EXTT7=
EXTT8=
EXTT9=
EXTT10=
EXTT11=
PLAYORDER=
